<svg width="358" height="363" xmlns="http://www.w3.org/2000/svg" xmlns:xlink="http://www.w3.org/1999/xlink" xml:space="preserve" overflow="hidden"><g transform="translate(-464 -194)"><g><g><path d="M177.17 0 56.4502 0C47.2567 0 39.7777 7.47899 39.7777 16.6725L39.7777 288.123C39.7777 297.316 47.2567 304.795 56.4502 304.795L248.346 304.795C257.54 304.795 265.019 297.316 265.019 288.123L265.019 82.2884C265.019 77.8368 263.285 73.6506 260.136 70.5009L188.773 4.70025C185.647 1.66725 181.537 0 177.17 0ZM244.178 283.954 60.6183 283.954 60.6183 20.8406 160.331 20.8406 160.331 76.7434C160.331 89.088 170.369 99.1317 182.707 99.1317L244.178 99.1317 244.178 283.954ZM182.707 78.2911C181.861 78.2911 181.171 77.5965 181.171 76.7434L181.171 32.867 229.755 78.2897 182.707 78.2897ZM91.0025 135.888C83.8611 135.888 78.0522 141.698 78.0522 148.838 78.0522 155.979 83.8625 161.788 91.0025 161.788 98.1439 161.788 103.953 155.978 103.953 148.838 103.953 141.698 98.1425 135.888 91.0025 135.888ZM114.622 138.419 225.077 138.419 225.077 159.26 114.622 159.26 114.622 138.419ZM91.0025 177.569C83.8611 177.569 78.0522 183.379 78.0522 190.519 78.0522 197.659 83.8625 203.469 91.0025 203.469 98.1439 203.469 103.953 197.659 103.953 190.519 103.953 183.379 98.1425 177.569 91.0025 177.569ZM114.622 180.099 225.077 180.099 225.077 200.939 114.622 200.939 114.622 180.099ZM91.0025 219.25C83.8611 219.25 78.0522 225.06 78.0522 232.2 78.0522 239.34 83.8625 245.151 91.0025 245.151 98.1439 245.151 103.953 239.34 103.953 232.2 103.953 225.06 98.1425 219.25 91.0025 219.25ZM114.622 221.78 225.077 221.78 225.077 242.621 114.622 242.621 114.622 221.78Z" fill="#7E845C" transform="matrix(1 0 0 1.00253 487.713 224.847)"/></g></g></g></svg>