<svg width="549" height="324" xmlns="http://www.w3.org/2000/svg" xmlns:xlink="http://www.w3.org/1999/xlink" xml:space="preserve" overflow="hidden"><defs><clipPath id="clip0"><rect x="263" y="161" width="549" height="324"/></clipPath></defs><g clip-path="url(#clip0)" transform="translate(-263 -161)"><path d="M143.569 469.077C123.607 466.964 113.389 458.385 109.25 440.234 108 434.672 107.957 433.724 108.991 433.724 109.423 433.724 115.674 433.25 122.874 432.646 130.074 432.042 136.67 431.568 137.533 431.568L139.128 431.568 139.861 434.974C141.672 443.467 145.638 447.434 152.666 447.865 157.365 448.124 159.909 447.218 163.013 444.114 165.858 441.269 166.634 439.027 166.333 434.888 165.815 428.55 160.814 422.773 146.155 411.563 129.169 398.543 120.848 390.696 115.157 382.332 111.32 376.641 107.655 367.501 106.361 360.344L105.715 356.981 152.019 356.981 198.323 356.981 198.323 369.484 198.323 381.987 174.61 381.987C161.59 381.987 150.898 382.117 150.941 382.332 150.984 383.108 158.917 389.532 166.29 394.835 183.492 407.123 189.959 413.547 194.27 422.644 196.685 427.817 197.245 430.577 197.245 437.388 197.202 442.778 197.073 443.769 196.038 446.744 191.856 458.859 182.198 466.188 167.497 468.43 162.28 469.249 148.613 469.594 143.569 469.077Z" fill="#7E845C" transform="matrix(1.00027 0 0 -1 259.94 662.104)"/><path d="M253.81 469.034C241.911 467.697 232.34 463.041 226.562 455.669 222.984 451.099 218.63 441.657 219.707 440.665 220.052 440.32 246.481 435.448 247.99 435.448 248.421 435.448 248.766 436.009 248.938 437.087 250.62 446.658 256.613 451.4 264.847 449.719 268.124 449.029 270.409 447.262 271.832 444.33 272.867 442.217 272.996 441.527 272.823 438.811 272.608 435.103 271.703 432.905 269.245 430.49 266.356 427.559 263.899 426.653 259.027 426.61L254.802 426.61 254.802 425.317C254.802 424.627 254.5 420.445 254.155 416.047 253.81 411.65 253.509 407.252 253.509 406.26L253.509 404.493 256.009 405.183C257.518 405.614 260.234 405.872 263.209 405.872 267.564 405.915 268.167 405.829 270.409 404.708 274.677 402.596 276.833 399.362 277.738 393.412 278.73 387.118 276.876 381.125 272.867 377.504 270.323 375.219 267.348 374.141 263.64 374.141 257.346 374.141 252.991 377.288 250.62 383.496 249.887 385.393 249.154 387.678 249.025 388.584 248.766 389.877 248.55 390.179 247.774 390.179 246.136 390.179 218.112 386.385 217.854 386.126 217.465 385.738 219.837 379.444 221.734 375.822 227.856 364.311 237.858 357.671 252.215 355.645 258.208 354.783 271.659 354.912 276.962 355.86 290.586 358.318 299.511 364.397 304.986 375.046 308.004 380.91 308.78 383.884 308.996 390.61 309.168 395.137 309.082 397.077 308.522 399.233 306.366 407.899 299.77 414.538 290.888 417.125L288.344 417.858 291.147 419.712C299.209 425.144 303.046 431.482 303.434 439.975 303.736 447.951 301.451 453.901 295.889 459.42 291.061 464.205 285.197 466.878 276.143 468.43 271.314 469.249 258.855 469.594 253.81 469.034Z" fill="#7E845C" transform="matrix(1.00027 0 0 -1 259.94 662.104)"/><path d="M54.9268 465.542C51.952 459.635 45.5281 452.306 39.9233 448.426 35.9568 445.709 27.8083 441.657 22.3329 439.76L18.1078 438.294 18.1078 425.662C18.1078 415.53 18.2371 413.029 18.6682 413.029 18.97 413.029 20.867 413.59 22.8934 414.28 32.1628 417.427 38.5005 420.531 45.7867 425.36L50.443 428.464 50.443 391.86 50.443 355.257 66.1795 355.257 81.916 355.257 81.916 411.52 81.916 467.784 68.9819 467.784 56.0478 467.784 54.9268 465.542Z" fill="#7E845C" transform="matrix(1.00027 0 0 -1 259.94 662.104)"/><path d="M361.163 434.715 333.269 401.604 333.269 388.799 333.269 375.951 361.077 375.865 388.929 375.736 389.015 365.604 389.101 355.472 402.553 355.343 416.047 355.257 416.133 365.475 416.263 375.736 423.29 375.865 430.275 375.951 430.275 388.023 430.275 400.095 423.29 400.181 416.263 400.311 416.133 434.069 416.047 467.784 402.553 467.784 389.058 467.784 361.163 434.715ZM389.317 417.125C389.317 404.148 389.187 400.44 388.756 400.311 388.454 400.181 381.944 400.138 374.27 400.181L360.344 400.311 374.486 416.996C382.289 426.179 388.799 433.681 389.015 433.724 389.187 433.724 389.317 426.265 389.317 417.125Z" fill="#7E845C" transform="matrix(1.00027 0 0 -1 259.94 662.104)"/><path d="M464.335 465.844C464.335 465.714 462.222 452.608 459.592 436.699 457.005 420.747 454.85 407.424 454.85 407.036 454.85 406.433 456.919 406.045 467.913 404.493L480.933 402.639 483.089 404.665C487.659 408.933 491.884 410.658 497.316 410.356 505.637 409.882 510.207 405.096 511.372 395.611 512.665 385.221 509.475 376.986 502.878 373.753 499.99 372.33 494.428 372.287 491.41 373.666 487.142 375.65 483.305 380.651 482.615 385.264 482.485 386.342 482.097 387.333 481.796 387.42 481.278 387.635 453.642 384.79 451.53 384.359L450.581 384.143 451.659 380.996C458.73 361.336 473.863 352.756 500.076 353.662 504.689 353.834 508.612 354.222 511.113 354.74 527.884 358.361 538.706 369.484 542.198 386.73 543.189 391.731 542.888 400.785 541.508 405.053 538.533 414.495 531.506 422.428 522.667 426.438 517.537 428.809 513.182 429.585 505.724 429.585 498.567 429.585 495.075 428.938 488.996 426.524 487.487 425.92 486.15 425.532 486.064 425.662 485.934 425.791 486.366 429.283 487.012 433.465L488.22 441.053 512.924 441.053 537.628 441.053 537.628 453.556 537.628 466.059 500.981 466.059C480.847 466.059 464.335 465.973 464.335 465.844Z" fill="#7E845C" transform="matrix(1.00027 0 0 -1 259.94 662.104)"/><path d="M381.987 323.31C366.294 321.37 356.033 313.997 350.299 300.632 348.272 295.932 347.41 291.362 347.41 285.197 347.41 274.16 350.773 265.408 357.801 258.337 361.163 254.888 363.664 253.121 367.889 251.137 372.33 249.025 375.477 248.292 381.168 248.033 390.136 247.602 397.077 249.844 403.889 255.406L407.252 258.122 406.907 254.845C406.002 246.136 404.45 238.893 402.811 235.659 401.82 233.719 398.802 230.658 396.862 229.71 395.87 229.149 393.93 228.718 392.248 228.589 386.773 228.201 382.979 231.133 381.254 237.125 380.91 238.419 380.478 239.626 380.306 239.798 380.047 240.1 350.126 236.479 349.738 236.091 349.393 235.746 350.859 232.081 352.929 228.115 359.094 216.345 368.493 210.826 384.617 209.489 398.155 208.325 410.141 210.955 419.065 216.991 421.997 218.974 427.127 224.105 429.068 226.907 431.482 230.443 434.371 236.737 435.621 241.006 440.062 256.656 439.803 280.067 435.06 294.165 433.293 299.338 430.188 305.029 426.955 309.082 420.962 316.584 413.159 320.938 402.466 322.749 397.681 323.568 386.342 323.87 381.987 323.31ZM395.913 303.262C398.845 302.27 402.682 298.649 404.148 295.372 407.769 287.223 406.433 276.1 401.216 271.271 397.853 268.167 396.129 267.52 391.472 267.52 387.721 267.52 387.161 267.65 385.048 268.814 379.271 272.004 376.339 278.902 376.943 287.956 377.762 300.33 385.609 306.668 395.913 303.262Z" fill="#7E845C" transform="matrix(1.00027 0 0 -1 259.94 662.104)"/><path d="M500.55 323.525C493.221 322.62 486.667 320.938 482.658 318.912 479.424 317.317 474.596 313.695 472.44 311.324 465.154 303.176 461.618 290.802 461.015 271.185 460.454 251.741 463.472 235.875 469.465 226.692 475.717 217.077 483.736 211.99 495.808 209.921 500.507 209.101 512.708 209.231 517.796 210.136 526.203 211.645 532.411 214.448 537.197 218.888 546.251 227.295 550.691 241.049 551.295 262.821 551.64 274.979 550.389 286.318 547.673 295.717 543.405 310.505 532.799 320.205 518.011 322.922 515.295 323.396 503.094 323.827 500.55 323.525ZM511.156 301.58C518.054 298.217 520.382 289.25 520.382 265.968 520.382 245.877 518.787 238.289 513.527 233.59 511.156 231.434 509.043 230.658 505.767 230.658 500.766 230.658 496.928 233.935 494.6 240.273 490.763 250.491 490.72 282.783 494.514 293.777 495.506 296.708 497.489 299.683 499.343 300.977 502.576 303.305 507.19 303.52 511.156 301.58Z" fill="#7E845C" transform="matrix(1.00027 0 0 -1 259.94 662.104)"/><path d="M58.4191 318.395C46.8646 316.541 37.2502 311.281 31.2574 303.52 23.5401 293.475 20.1772 280.756 20.1341 261.485 20.1341 240.661 24.1437 227.382 33.5856 217.207 41.7772 208.412 51.8658 204.79 68.3352 204.79 78.8118 204.79 85.6669 206.17 92.2633 209.576 104.163 215.698 111.233 228.287 111.233 243.161 111.233 251.396 109.336 258.251 105.413 264.33 97.9974 275.841 85.5376 281.705 71.9568 280.196 65.1017 279.42 60.2298 277.307 54.4957 272.565L51.7364 270.237 51.7364 271.573C51.7364 273.6 52.9867 282.74 53.7628 286.059 55.7029 294.855 60.5316 299.726 67.2574 299.77 72.3448 299.813 75.4921 297.226 77.2597 291.578 78.0358 289.034 78.3807 288.431 79.1136 288.431 80.0621 288.431 108.819 291.923 108.991 292.095 109.25 292.311 107.224 297.355 105.629 300.416 100.196 310.893 91.4873 316.67 78.4669 318.395 72.9484 319.171 63.1185 319.171 58.4191 318.395ZM72.819 259.932C77.2166 258.035 80.5364 253.207 81.4418 247.473 83.5543 234.495 78.4238 224.967 68.9388 224.277 62.0406 223.803 56.3496 227.77 53.849 234.797 52.7281 237.901 52.2969 244.455 52.9867 248.119 54.8837 258.208 64.1963 263.77 72.819 259.932Z" fill="#7E845C" transform="matrix(1.00027 0 0 -1 259.94 662.104)"/><path d="M273.988 318.567C268.857 317.877 263.08 316.11 258.984 313.997 253.724 311.281 247.904 305.676 245.619 301.106 241.652 293.216 241.997 283.516 246.395 276.143 248.421 272.78 250.706 270.495 254.371 268.124 256.009 267.089 257.346 266.141 257.346 266.012 257.346 265.882 255.75 265.063 253.853 264.115 248.809 261.7 244.627 257.475 242.342 252.603 238.764 244.843 238.419 236.047 241.394 227.295 243.118 222.337 245.015 219.362 248.982 215.353 254.026 210.266 259.501 207.592 268.814 205.782 271.918 205.178 274.979 205.006 284.335 205.006 294.855 205.006 296.45 205.092 300.934 205.997 314.342 208.713 322.447 214.663 327.233 225.226 329.432 230.012 329.992 232.943 329.992 239.065 329.992 244.067 329.863 245.058 328.785 248.119 327.233 252.646 325.508 255.578 322.62 258.725 320.593 260.881 315.247 264.934 313.35 265.71 312.962 265.882 313.178 266.27 314.083 266.96 316.972 269.159 320.981 273.298 322.577 275.669 324.991 279.377 326.414 284.292 326.414 288.905 326.457 297.01 324.344 302.184 318.653 307.875 313.092 313.393 307.228 316.239 297.614 318.007 293.087 318.826 278.428 319.171 273.988 318.567ZM289.983 298.864C292.785 297.441 294.337 295.889 295.587 293.302 297.226 290.026 297.269 284.982 295.76 281.834 292.311 274.634 282.179 272.867 275.841 278.428 272.737 281.188 271.314 287.008 272.651 291.664 273.6 294.898 276.962 298.39 280.067 299.382 282.955 300.33 287.655 300.071 289.983 298.864ZM290.629 255.147C293.173 253.638 296.407 250.146 297.614 247.602 298.39 245.834 298.562 244.756 298.562 240.359 298.562 235.659 298.476 234.97 297.398 232.728 292.785 222.898 281.791 220.958 274.677 228.718 271.573 232.124 270.582 234.927 270.625 240.359 270.625 246.826 272.479 250.879 276.833 254.069 279.549 256.052 281.317 256.57 285.24 256.397 288.043 256.268 289.077 256.052 290.629 255.147Z" fill="#7E845C" transform="matrix(1.00027 0 0 -1 259.94 662.104)"/><path d="M129.341 304.167 129.341 291.017 156.503 290.931 183.664 290.802 180.948 287.353C171.032 274.764 162.754 260.795 158.012 248.594 154.433 239.497 151.07 226.519 149.173 214.491 148.699 211.386 148.182 208.368 148.052 207.722L147.794 206.515 163.358 206.515C171.937 206.515 178.922 206.644 178.922 206.86 178.922 208.11 180.388 219.751 181.121 223.933 184.052 241.695 191.382 260.665 200.737 274.764 204.488 280.368 210.222 287.31 215.31 292.311L219.449 296.407 219.449 306.84 219.449 317.317 174.395 317.317 129.341 317.317 129.341 304.167Z" fill="#7E845C" transform="matrix(1.00027 0 0 -1 259.94 662.104)"/><path d="M193.02 175.214C192.848 175.042 192.718 173.274 192.718 171.291L192.718 167.712 191.037 167.712C188.666 167.712 182.242 166.548 178.706 165.513 169.782 162.84 162.625 157.106 158.917 149.605 156.546 144.733 155.64 140.939 155.64 135.291 155.64 127.487 157.71 121.408 162.28 115.89 167.152 110.026 172.541 107.267 188.967 102.395L192.718 101.274 192.718 88.3831C192.718 81.2693 192.589 75.449 192.373 75.449 192.201 75.449 191.295 75.9663 190.347 76.5699 185.992 79.4585 184.268 82.0885 182.716 88.1675 181.983 91.0561 181.638 91.7891 181.121 91.6597 180.733 91.5304 173.878 90.7112 165.902 89.8058 149.087 87.9088 150.639 88.728 152.407 82.649 154.433 75.5352 156.977 71.1376 161.763 66.3951 168.187 60.0143 175.861 56.5652 187.113 54.97 189.743 54.6251 192.072 54.3233 192.287 54.3233 192.546 54.3233 192.718 51.4778 192.718 47.2095L192.718 40.0957 198.539 40.0957 204.359 40.0957 204.359 47.2095 204.359 54.3233 205.782 54.3233C208.239 54.3233 215.698 55.5736 218.802 56.5221 234.064 61.0921 244.886 75.0609 244.886 90.1076 244.886 95.2382 243.851 99.6358 241.652 104.12 236.78 113.906 229.236 118.778 210.136 124.512L204.574 126.194 204.445 136.843 204.359 147.492 205.307 146.975C207.636 145.724 210.309 142.62 211.731 139.473 212.594 137.576 213.456 136.282 213.844 136.239 214.965 136.239 241.092 140.464 241.307 140.723 241.782 141.197 240.488 145.207 238.591 149.044 235.444 155.425 229.839 160.857 223.415 163.703 219.923 165.255 213.844 166.764 208.8 167.367L204.402 167.885 204.273 171.593 204.143 175.257 198.711 175.387C195.736 175.43 193.192 175.343 193.02 175.214ZM192.718 138.611C192.718 133.523 192.632 129.341 192.503 129.341 192.373 129.341 191.339 129.815 190.175 130.376 182.673 134.213 182.673 143.267 190.175 146.931 191.209 147.406 192.201 147.837 192.416 147.88 192.589 147.88 192.718 143.698 192.718 138.611ZM207.937 96.4453C213.542 93.8585 216 90.7112 216 86.1843 216 83.4681 214.62 80.1484 212.723 78.3807 211.257 77.0442 207.592 75.1041 205.695 74.7591L204.359 74.5005 204.359 86.1843C204.359 92.6082 204.488 97.8681 204.618 97.8681 204.747 97.8681 206.256 97.2214 207.937 96.4453Z" fill="#7E845C" transform="matrix(1.00027 0 0 -1 259.94 662.104)"/><path d="M289.508 167.928C280.756 165.988 274.764 161.504 271.185 154.175 268.986 149.648 268.167 146.5 267.865 141.197 267.176 129.039 272.737 118.476 282.481 113.561 286.792 111.406 290.716 110.63 297.7 110.63 304.857 110.587 308.522 111.32 313.393 113.777 319.343 116.795 324.043 122.4 326.198 129.039 327.707 133.696 328.095 142.06 327.061 147.018 324.905 157.365 317.231 165.212 306.926 167.712 302.615 168.747 293.647 168.833 289.508 167.928ZM300.934 154.692C304.469 152.881 306.107 148.052 306.107 139.473 306.107 129.6 303.736 124.211 299.123 123.478 294.984 122.788 292.182 124.771 290.543 129.643 289.638 132.23 289.508 133.351 289.508 139.257 289.508 145.034 289.638 146.371 290.5 148.958 291.664 152.579 292.914 154.218 295.156 154.994 297.528 155.856 298.735 155.77 300.934 154.692Z" fill="#7E845C" transform="matrix(1.00027 0 0 -1 259.94 662.104)"/><path d="M360.819 167.626C360.517 167.066 346.332 140.723 329.259 109.078 312.229 77.4322 298.131 51.3053 298.045 51.0035 297.873 50.5293 299.382 50.443 305.892 50.5293L313.954 50.6586 326.543 73.94C333.441 86.7448 347.151 112.052 356.938 130.203 366.768 148.354 375.434 164.393 376.253 165.902L377.762 168.575 369.527 168.575C361.465 168.575 361.336 168.575 360.819 167.626Z" fill="#7E845C" transform="matrix(1.00027 0 0 -1 259.94 662.104)"/><path d="M56.9101 167.195C56.867 167.109 55.6598 161.073 54.1939 153.7L51.4778 140.335 40.182 140.206 28.8862 140.12 28.8862 129.557 28.8862 118.994 37.9832 118.994 47.0802 118.994 46.8215 117.399C46.649 116.493 45.8299 112.311 44.9676 108.129L43.3724 100.455 36.1293 100.455 28.8862 100.455 28.8862 89.8921 28.8862 79.3292 34.0598 79.3292C39.2335 79.3292 39.2335 79.3292 39.0179 78.3376 38.4574 75.9663 34.0598 53.6766 34.0598 53.1592 34.0598 52.7281 36.2586 52.5987 44.752 52.5987L55.4873 52.5987 56.3496 56.8239C56.867 59.1089 58.0742 65.1448 59.1089 70.1891L60.9197 79.3292 69.0681 79.3292 77.1735 79.3292 76.9579 78.3807C76.3975 75.9663 71.9999 53.6766 71.9999 53.1592 71.9999 52.7281 74.1987 52.5987 82.7783 52.5987 88.728 52.5987 93.5567 52.6418 93.5567 52.7281 93.5998 52.7712 94.807 58.7209 96.2729 65.964L98.9459 79.1136 110.285 79.243 121.581 79.3292 121.581 89.8921 121.581 100.455 112.354 100.455 103.171 100.455 104.809 108.776C105.715 113.303 106.577 117.485 106.706 118.045 106.922 118.994 107.008 118.994 114.251 118.994L121.581 118.994 121.581 129.557 121.581 140.12 116.407 140.12C113.561 140.12 111.233 140.292 111.233 140.464 111.233 140.637 112.397 146.63 113.82 153.7 115.243 160.771 116.407 166.764 116.407 166.936 116.407 167.238 94.8932 167.454 94.8501 167.195 94.807 167.109 93.5998 161.073 92.134 153.7L89.4178 140.335 81.3555 140.206C76.9148 140.163 73.2933 140.206 73.2933 140.292 73.2933 140.421 74.4574 146.285 75.8801 153.312 77.3029 160.34 78.4669 166.376 78.4669 166.678 78.4669 167.195 76.5268 167.281 67.6885 167.281 61.7819 167.281 56.9101 167.238 56.9101 167.195ZM84.934 118.476C84.934 118.218 84.1148 114.036 83.1232 109.207L81.3124 100.455 73.2071 100.455 65.1017 100.455 65.3173 101.447C65.4466 101.964 66.2226 105.715 67.0418 109.724 67.861 113.777 68.637 117.485 68.7663 118.045 68.9819 118.994 69.0681 118.994 76.9579 118.994 82.6921 118.994 84.934 118.864 84.934 118.476Z" fill="#7E845C" transform="matrix(1.00027 0 0 -1 259.94 662.104)"/><path d="M370.433 108.647C356.162 106.06 347.496 95.3244 347.453 80.1484 347.453 62.0837 358.749 50.8311 376.986 50.8311 382.85 50.8311 386.256 51.3915 390.61 53.073 398.457 56.0909 404.018 62.6011 406.433 71.5687 407.468 75.3627 407.468 84.4597 406.433 88.3831 403.889 98.1268 396.646 105.413 386.945 108.043 383.884 108.862 373.796 109.207 370.433 108.647ZM380.694 95.0657C382.505 94.1172 383.626 92.4789 384.704 89.0729 385.48 86.4861 385.652 85.0202 385.652 79.7603 385.609 68.6801 383.151 63.8083 377.547 63.8083 371.554 63.8083 369.01 68.5508 369.01 79.7603 369.01 88.0382 370.476 92.8669 373.58 94.8501 375.175 95.8849 378.883 96.0142 380.694 95.0657Z" fill="#7E845C" transform="matrix(1.00027 0 0 -1 259.94 662.104)"/></g></svg>