<svg width="293" height="304" xmlns="http://www.w3.org/2000/svg" xmlns:xlink="http://www.w3.org/1999/xlink" xml:space="preserve" overflow="hidden"><g transform="translate(-203 -208)"><g><g><path d="M177.875 166.954C134.959 147.12 74.8891 155.892 72.3536 156.275 66.7003 157.129 62.8094 162.403 63.6638 168.056 64.5181 173.71 69.7961 177.596 75.4453 176.746 76.0057 176.661 131.851 168.49 169.189 185.747 170.595 186.397 172.073 186.704 173.526 186.704 177.438 186.703 181.181 184.477 182.93 180.694 185.327 175.504 183.065 169.352 177.875 166.954Z" fill="#7E845C" transform="matrix(1 0 0 1.00088 220.557 230.944)"/><path d="M189.937 129.675C141.197 107.152 72.8491 117.133 69.9631 117.568 64.3125 118.422 60.4244 123.693 61.276 129.344 62.1262 134.996 67.4014 138.89 73.0506 138.041 73.6966 137.943 138.205 128.577 181.251 148.47 182.659 149.12 184.134 149.428 185.588 149.428 189.499 149.426 193.242 147.2 194.993 143.415 197.39 138.226 195.126 132.074 189.937 129.675Z" fill="#7E845C" transform="matrix(1 0 0 1.00088 220.557 230.944)"/><path d="M198.047 90.7298C144.21 65.8487 68.5967 76.889 65.4042 77.3707 59.7536 78.225 55.8656 83.4961 56.7172 89.1467 57.5688 94.7973 62.8453 98.6964 68.4918 97.842 69.2136 97.733 141.217 87.2737 189.361 109.523 190.766 110.173 192.245 110.481 193.698 110.481 197.609 110.481 201.353 108.253 203.101 104.47 205.5 99.2788 203.237 93.1286 198.047 90.7298Z" fill="#7E845C" transform="matrix(1 0 0 1.00088 220.557 230.944)"/><path d="M128.944 0.00138021C57.8434 0.00138021 0 57.8434 0 128.94 0 200.04 57.8434 257.885 128.944 257.885 200.043 257.885 257.886 200.04 257.886 128.94 257.886 57.8434 200.043 0.00138021 128.944 0.00138021ZM128.944 237.182C69.2592 237.182 20.7032 188.626 20.7032 128.94 20.7032 69.2578 69.2592 20.7032 128.944 20.7032 188.627 20.7032 237.183 69.2578 237.183 128.94 237.183 188.626 188.627 237.182 128.944 237.182Z" fill="#7E845C" transform="matrix(1 0 0 1.00088 220.557 230.944)"/></g></g></g></svg>