<svg width="382" height="337" xmlns="http://www.w3.org/2000/svg" xmlns:xlink="http://www.w3.org/1999/xlink" xml:space="preserve" overflow="hidden"><defs><clipPath id="clip0"><rect x="518" y="185" width="264" height="265"/></clipPath><clipPath id="clip1"><rect x="518" y="185" width="264" height="265"/></clipPath></defs><g transform="translate(-463 -144)"><g clip-path="url(#clip0)"><g clip-path="url(#clip1)"><path d="M193.483 139.692C163.823 139.692 139.753 163.745 139.753 193.437 139.753 223.113 163.823 247.167 193.483 247.167 223.175 247.167 247.229 223.113 247.229 193.437 247.229 163.73 223.175 139.692 193.483 139.692L193.483 139.692ZM194.118 234.141C171.629 234.141 153.399 216.05 153.399 193.731 153.399 171.428 171.629 153.322 194.118 153.322 216.623 153.322 234.884 171.428 234.884 193.731 234.884 216.05 216.623 234.141 194.118 234.141L194.118 234.141Z" fill="#7E845C" fill-rule="evenodd" transform="matrix(1.00015 0 0 1 533.817 193.613)"/><path d="M54.3959 1.2236C25.0915 1.2236 1.33202 24.9986 1.33202 54.303 1.33202 83.6384 25.0915 107.398 54.3959 107.398 83.7158 107.398 107.491 83.6384 107.491 54.303 107.475 24.9986 83.7003 1.2236 54.3959 1.2236L54.3959 1.2236ZM54.3959 94.4029C32.2782 94.4029 14.3269 76.4362 14.3269 54.303 14.3269 32.2008 32.2782 14.234 54.3959 14.234 76.5136 14.234 94.4958 32.2008 94.4958 54.303 94.4958 76.4362 76.4981 94.4029 54.3959 94.4029L54.3959 94.4029Z" fill="#7E845C" fill-rule="evenodd" transform="matrix(1.00015 0 0 1 533.817 193.613)"/><path d="M108.513 154.421 94.4804 140.373 54.8296 180.039 15.1633 140.373 1.11518 154.421 40.7814 194.087 1.11518 233.723 15.1633 247.755 54.8296 208.136 94.4804 247.755 108.513 233.723 68.8623 194.087 108.513 154.421Z" fill="#7E845C" fill-rule="evenodd" transform="matrix(1.00015 0 0 1 533.817 193.613)"/><path d="M248.7 14.3424 234.575 0.201352 194.661 40.1154 154.762 0.201352 140.652 14.3424 180.55 54.241 140.652 94.1086 154.762 108.234 194.661 68.3511 234.575 108.234 248.7 94.1086 208.802 54.241 248.7 14.3424Z" fill="#7E845C" fill-rule="evenodd" transform="matrix(1.00015 0 0 1 533.817 193.613)"/></g></g></g></svg>