<svg width="244" height="254" xmlns="http://www.w3.org/2000/svg" xmlns:xlink="http://www.w3.org/1999/xlink" xml:space="preserve" overflow="hidden"><g transform="translate(-534 -219)"><g><g><path d="M154.927 41.9879 161.566 29.323 149.176 22.8271 142.541 35.4812C133.393 31.5338 123.48 29.0231 113.084 28.2425L113.084 13.9897 135.593 13.9897 135.593 0 76.5849 0 76.5849 13.9897 99.094 13.9897 99.094 28.242C88.6973 29.0226 78.7841 31.5338 69.6358 35.4808L63.0018 22.8266 50.6116 29.3225 57.2516 41.9879C31.2694 58.271 13.9897 87.1547 13.9897 120.079 13.9897 170.943 55.224 212.178 106.089 212.178 156.954 212.178 198.188 170.943 198.188 120.079 198.188 87.1542 180.908 58.271 154.927 41.9879ZM165.545 127.073 99.094 127.073 99.094 60.6222 113.084 60.6222 113.084 113.084 165.545 113.084 165.545 127.073Z" fill="#7E845C" transform="matrix(1.00084 0 0 1 548.461 242.456)"/></g></g></g></svg>